<?xml version="1.0" encoding="UTF-8"?>
<svg id="Layer_1" xmlns="http://www.w3.org/2000/svg" xmlns:xlink="http://www.w3.org/1999/xlink" version="1.1" viewBox="0 0 72.37 114.04">
  <!-- Generator: Adobe Illustrator 29.5.1, SVG Export Plug-In . SVG Version: 2.1.0 Build 141)  -->
  <defs>
    <style>
      .st0, .st1 {
        fill: none;
      }

      .st2 {
        fill: #2d7a5f;
      }

      .st3 {
        fill: url(#linear-gradient1);
      }

      .st4 {
        fill: #1a5f3f;
      }

      .st5 {
        fill: url(#linear-gradient);
        stroke: #1a5f3f;
        stroke-width: 2px;
      }

      .st1 {
        isolation: isolate;
        opacity: .6;
        stroke: #2d9f6f;
        stroke-width: 1.5px;
      }

      .st6 {
        clip-path: url(#clippath);
      }
    </style>
    <linearGradient id="linear-gradient" x1="36.25" y1="1050.33" x2="36.25" y2="940.33" gradientTransform="translate(0 -938)" gradientUnits="userSpaceOnUse">
      <stop offset="0" stop-color="#2d9f6f"/>
      <stop offset="1" stop-color="#1a7a52"/>
    </linearGradient>
    <clipPath id="clippath">
      <circle class="st0" cx="36.25" cy="36.53" r="24">
        <animate accumulate="none" additive="replace" attributeName="r" calcMode="linear" dur="2s" fill="remove" repeatCount="indefinite" restart="always" values="24;28;24"/>
        <animate accumulate="none" additive="replace" attributeName="opacity" calcMode="linear" dur="2s" fill="remove" repeatCount="indefinite" restart="always" values="0.6;0;0.6"/>
      </circle>
    </clipPath>
    <linearGradient id="linear-gradient1" x1="-4432.74" y1="133.23" x2="-4432.74" y2="131.97" gradientTransform="translate(159614.42 709.18) scale(36 -5)" gradientUnits="userSpaceOnUse">
      <stop offset="0" stop-color="#4fb3bf"/>
      <stop offset="1" stop-color="#2d8da0"/>
    </linearGradient>
  </defs>
  <g>
    <path class="st5" d="M36.25,1.53C16.25,1.53,1.25,16.53,1.25,36.53c0,25,35,75,35,75,0,0,35-50,35-75C71.25,16.53,56.25,1.53,36.25,1.53ZM36.25,12.53c13.25,0,24,10.75,24,24s-10.75,24-24,24-24-10.75-24-24,10.75-24,24-24Z"/>
    <circle class="st1" cx="36.25" cy="36.53" r="24">
      <animate accumulate="none" additive="replace" attributeName="r" calcMode="linear" dur="2s" fill="remove" repeatCount="indefinite" restart="always" values="24;28;24"/>
      <animate accumulate="none" additive="replace" attributeName="opacity" calcMode="linear" dur="2s" fill="remove" repeatCount="indefinite" restart="always" values="0.6;0;0.6"/>
    </circle>
  </g>
  <g class="st6">
    <g>
      <g>
        <path class="st4" d="M18.07,39.07l9.92-19.83,9.92,19.83h-19.85Z"/>
        <path class="st2" d="M34.59,39.07l9.92-16.53,9.92,16.53h-19.85Z"/>
      </g>
      <path class="st3" d="M13.24,44.3c2.51-1.67,5.01-1.67,7.52,0s5.01,1.67,7.52,0,5.01-1.67,7.52,0,5.01,1.67,7.52,0,5.01-1.67,7.52,0,5.01,1.67,7.52,0v5.01H13.24s0-5.01,0-5.01Z"/>
    </g>
  </g>
</svg>