<svg xmlns="http://www.w3.org/2000/svg" viewBox="0 0 100 140"><ellipse cx="50" cy="135" fill="rgba(0,0,0,0.2)" rx="20" ry="5"/><path fill="url(#a)" stroke="#1a5f3f" stroke-width="2" d="M50 10c-20 0-35 15-35 35 0 25 35 75 35 75s35-50 35-75c0-20-15-35-35-35Z"/><defs><linearGradient id="a" x1="0%" x2="0%" y1="0%" y2="100%"><stop offset="0%" style="stop-color:#2d9f6f;stop-opacity:1"/><stop offset="100%" style="stop-color:#1a7a52;stop-opacity:1"/></linearGradient><linearGradient id="b" x1="0%" x2="0%" y1="0%" y2="100%"><stop offset="0%" style="stop-color:#4fb3bf;stop-opacity:1"/><stop offset="100%" style="stop-color:#2d8da0;stop-opacity:1"/></linearGradient></defs><circle cx="50" cy="45" r="24" fill="#fff"/><g transform="translate(50 45)"><path fill="#2d9f6f" d="M-15-8q3-4 5 0l-1 6Z"/><path fill="#3bb77f" d="M-12-6q2-4 4-1l-1 5Z"/><path fill="#1a5f3f" d="m-8 2 6-12L4 2Z"/><path fill="#2d7a5f" d="M2 2 8-8l6 10Z"/><path fill="url(#b)" d="M-18 6q3-2 6 0t6 0 6 0 6 0 6 0 6 0v4h-36Z"/><circle cx="-4" cy="-4" r="1.5" fill="#fff" opacity=".8"/><circle cx="-2" cy="-4" r="1.5" fill="#fff" opacity=".8"/><circle cx="10" cy="-2" r="1.5" fill="#fff" opacity=".8"/><circle cx="12" cy="-2" r="1.5" fill="#fff" opacity=".8"/></g><circle cx="50" cy="45" r="24" fill="none" stroke="#2d9f6f" stroke-width="1.5" opacity=".6"><animate attributeName="r" dur="2s" repeatCount="indefinite" values="24;28;24"/><animate attributeName="opacity" dur="2s" repeatCount="indefinite" values="0.6;0;0.6"/></circle></svg>